# xmcd CD database file
#
# Track frame offsets:
#	150
#	14916
#	27149
#	45465
#	61547
#	73625
#	85087
#	103418
#	116378
#	128780
#	146869
#	161645
#	190691
#	206049
#	223989
#	235601
#	256024
#	279863
#
# Disc length: 3878 seconds
#
# Revision: 2
# Processed by: cddbd v1.5.2PL0 Copyright (c) Steve Scherf et al.
# Submitted via: CDex 1.94
#
DISCID=fe0f2412
DTITLE=Various Artist - Stax - Chartbusters # 4
DYEAR=1900
DGENRE=Blues
TTITLE0=Booker T And The MG's - Time Is Tight
TTITLE1=Eddie Floyd - I've Never Found A Girl (To Love Me Like You Do)
TTITLE2=Johnnie Taylor - Testify (I Wonna)
TTITLE3=The Temprees - Dedicated To The One I Love
TTITLE4=Shirley Brown - Between You And Me
TTITLE5=William Bell - A Smile Can't Hide (A Broken Heart)
TTITLE6=Isaac Hayes - I Stand Accused
TTITLE7=Mel and Tim - What's Your Name
TTITLE8=The Mad Lads - Love Is Here Today And Gone Tomorrow
TTITLE9=The Soul Children - Don't Take My Sunshine
TTITLE10=The Staple Singers - I'll Take You There
TTITLE11=Little Milton - Tain't Nobody's Business Iff I Do
TTITLE12=The Bar Kays - Memphis At Sunrise
TTITLE13=The Dramatics - Hot Pants In The Summertime
TTITLE14=Booker T And The MG's - Run Tank Run
TTITLE15=Johnnie Taylor - I Believe In You (You Believe In Me)
TTITLE16=Isaac Hayes - Good Love
TTITLE17=Johnnie Taylor - Payback Hurts
EXTD=
EXTT0=
EXTT1=
EXTT2=
EXTT3=
EXTT4=
EXTT5=
EXTT6=
EXTT7=
EXTT8=
EXTT9=
EXTT10=
EXTT11=
EXTT12=
EXTT13=
EXTT14=
EXTT15=
EXTT16=
EXTT17=
PLAYORDER=
